<?xml version="1.0" encoding="UTF-8" standalone="no"?>
<svg
   viewBox="0 0 382 60"
   version="1.1"
   stroke-linecap="round"
   stroke-linejoin="round"
   fill-rule="evenodd"
   xml:space="preserve"
   id="svg6"
   sodipodi:docname="Dune.svg"
   inkscape:version="1.2.2 (732a01da63, 2022-12-09)"
   xmlns:inkscape="http://www.inkscape.org/namespaces/inkscape"
   xmlns:sodipodi="http://sodipodi.sourceforge.net/DTD/sodipodi-0.dtd"
   xmlns="http://www.w3.org/2000/svg"
   xmlns:svg="http://www.w3.org/2000/svg"><defs
   id="defs10" /><sodipodi:namedview
   id="namedview8"
   pagecolor="#505050"
   bordercolor="#eeeeee"
   borderopacity="1"
   inkscape:showpageshadow="0"
   inkscape:pageopacity="0"
   inkscape:pagecheckerboard="0"
   inkscape:deskcolor="#505050"
   showgrid="false"
   inkscape:zoom="2.7932569"
   inkscape:cx="223.75314"
   inkscape:cy="56.564794"
   inkscape:window-width="2560"
   inkscape:window-height="1334"
   inkscape:window-x="-11"
   inkscape:window-y="-11"
   inkscape:window-maximized="1"
   inkscape:current-layer="svg6" />
<g
   fill="none"
   stroke="#000000"
   stroke-width="0.4775"
   id="g4"
   transform="matrix(1.0995309,0,0,0.99298817,-18.978727,3.0691256)"
   style="fill:#000000;fill-opacity:1">
<polygon
   points="124.734,14.5388 125.906,14.4016 127.077,14.2526 128.246,14.0919 129.413,13.9195 130.579,13.7354 131.743,13.5397 132.905,13.3324 134.065,13.1135 135.222,12.8829 136.377,12.6408 137.53,12.3872 138.68,12.1221 139.827,11.8455 140.354,11.7143 140.404,11.788 140.455,11.8612 140.506,11.9339 140.558,12.0061 140.611,12.0778 140.665,12.1489 140.719,12.2195 140.774,12.2896 140.829,12.3591 140.886,12.428 140.943,12.4964 141.001,12.5642 141.059,12.6314 141.118,12.698 141.178,12.764 141.238,12.8295 141.299,12.8943 141.361,12.9585 141.423,13.0221 141.486,13.0851 141.549,13.1474 141.614,13.2091 141.678,13.2702 141.744,13.3306 141.81,13.3903 141.876,13.4494 141.944,13.5078 142.011,13.5656 142.08,13.6226 142.149,13.679 142.218,13.7347 142.288,13.7896 142.359,13.8439 142.43,13.8975 142.501,13.9503 142.574,14.0025 142.646,14.0539 142.719,14.1046 142.793,14.1545 142.867,14.2037 142.942,14.2522 143.017,14.2999 143.093,14.3469 143.169,14.3931 143.245,14.4385 143.322,14.4832 143.4,14.5271 143.478,14.5702 143.556,14.6126 143.635,14.6541 143.714,14.6949 143.793,14.7349 143.873,14.7741 143.954,14.8125 144.034,14.85 144.115,14.8868 144.197,14.9227 144.279,14.9579 144.361,14.9922 144.443,15.0257 144.526,15.0583 144.609,15.0902 144.693,15.1212 144.777,15.1513 144.861,15.1807 144.945,15.2092 145.03,15.2368 145.114,15.2636 145.2,15.2895 145.285,15.3146 145.371,15.3389 145.457,15.3622 145.543,15.3848 145.629,15.4064 145.716,15.4272 145.802,15.4471 145.889,15.4662 145.977,15.4844 146.024,15.4938 146.572,15.4292 147.119,15.3592 147.665,15.2837 148.211,15.2027 148.756,15.1162 149.3,15.0244 149.843,14.927 150.385,14.8243 150.926,14.7161 151.466,14.6026 152.005,14.4836 152.542,14.3593 153.078,14.2296 153.613,14.0945 154.147,13.9541 154.679,13.8084 155.209,13.6573 155.739,13.501 156.266,13.3394 156.792,13.1725 157.316,13.0003 157.838,12.823 158.359,12.6404 158.878,12.4526 159.395,12.2596 159.91,12.0615 160.422,11.8582 160.933,11.6498 161.442,11.4364 161.949,11.2178 162.453,10.9942 162.955,10.7655 163.455,10.5319 163.952,10.2932 164.447,10.0496 164.94,9.80111 165.43,9.54765 165.917,9.28931 166.402,9.02611 166.884,8.75808 167.364,8.48523 167.841,8.2076 168.315,7.92522 168.786,7.63812 169.254,7.34631 169.719,7.04984 170.181,6.74874 170.641,6.44302 171.097,6.13273 171.55,5.81789 172,5.49854 172.446,5.1747 172.89,4.84641 173.33,4.51371 173.767,4.17662 174.2,3.83518 174.63,3.48943 175.056,3.13939 175.306,2.93139 175.404,3.11663 175.503,3.30089 175.605,3.48414 175.708,3.66636 175.813,3.84755 175.92,4.02767 176.029,4.20671 176.14,4.38466 176.252,4.56149 176.366,4.73719 176.482,4.91174 176.599,5.08513 176.719,5.25733 176.84,5.42832 176.963,5.5981 177.087,5.76665 177.213,5.93394 177.341,6.09996 177.47,6.26469 177.601,6.42812 177.734,6.59024 177.868,6.75102 178.004,6.91044 178.142,7.0685 178.281,7.22518 178.421,7.38046 178.564,7.53433 178.707,7.68676 178.853,7.83775 178.999,7.98729 179.147,8.13534 179.297,8.28191 179.448,8.42697 179.601,8.57052 179.755,8.71253 179.91,8.85299 180.067,8.9919 180.225,9.12922 180.385,9.26496 180.546,9.3991 180.708,9.53162 180.872,9.66251 181.037,9.79176 181.203,9.91935 181.37,10.0453 181.539,10.1695 181.709,10.2921 181.88,10.4129 182.052,10.5321 182.226,10.6495 182.4,10.7651 182.576,10.879 182.753,10.9912 182.931,11.1015 183.11,11.2101 183.291,11.3169 183.472,11.4219 183.654,11.525 183.838,11.6264 184.022,11.7259 184.207,11.8235 184.394,11.9193 184.581,12.0132 184.769,12.1053 184.958,12.1954 185.148,12.2837 185.339,12.37 185.531,12.4545 185.723,12.537 185.917,12.6176 186.111,12.6962 186.306,12.7729 186.501,12.8477 186.698,12.9205 186.895,12.9913 187.093,13.0602 187.291,13.127 187.491,13.1919 187.598,13.2261 187.722,13.1772 187.844,13.1271 187.967,13.0758 188.088,13.0233 188.21,12.9695 188.33,12.9146 188.45,12.8584 188.57,12.801 188.689,12.7425 188.807,12.6827 188.925,12.6218 189.042,12.5597 189.158,12.4964 189.274,12.432 189.39,12.3664 189.504,12.2997 189.618,12.2318 189.731,12.1628 189.844,12.0927 189.956,12.0214 190.067,11.949 190.177,11.8755 190.287,11.801 190.395,11.7253 190.503,11.6485 190.611,11.5707 190.717,11.4918 190.823,11.4118 190.928,11.3308 191.032,11.2487 191.135,11.1656 191.238,11.0815 191.34,10.9963 191.44,10.9102 191.54,10.823 191.639,10.7348 191.737,10.6457 191.835,10.5556 191.931,10.4645 192.026,10.3724 192.121,10.2794 192.214,10.1855 192.307,10.0906 192.399,9.99482 192.489,9.89812 192.579,9.80051 192.668,9.70201 192.755,9.60263 192.842,9.50238 192.89,9.44657 193.052,9.58218 193.215,9.71618 193.379,9.84854 193.545,9.97924 193.712,10.1083 193.88,10.2356 194.05,10.3613 194.22,10.4853 194.393,10.6076 194.566,10.7281 194.74,10.8469 194.916,10.9639 195.093,11.0792 195.271,11.1927 195.45,11.3044 195.63,11.4144 195.811,11.5225 195.994,11.6288 196.177,11.7333 196.361,11.8359 196.547,11.9367 196.733,12.0356 196.921,12.1326 197.109,12.2278 197.299,12.3211 197.489,12.4125 197.68,12.502 197.872,12.5895 198.065,12.6752 198.259,12.7589 198.453,12.8406 198.649,12.9205 198.845,12.9983 199.042,13.0742 199.24,13.1481 199.438,13.2201 199.637,13.29 199.837,13.358 200.037,13.4239 200.239,13.4879 200.44,13.5498 200.643,13.6097 200.846,13.6676 201.049,13.7234 201.253,13.7772 201.458,13.829 201.663,13.8787 201.869,13.9264 202.075,13.972 202.281,14.0155 202.488,14.057 202.696,14.0964 202.903,14.1337 203.112,14.169 203.32,14.2021 203.529,14.2332 203.738,14.2622 203.947,14.2891 204.157,14.3139 204.367,14.3366 204.577,14.3572 204.606,14.36 204.935,14.4036 205.265,14.4439 205.594,14.481 205.924,14.5147 206.255,14.5452 206.585,14.5723 206.916,14.5961 207.247,14.6167 207.579,14.6339 207.91,14.6478 208.242,14.6583 208.574,14.6656 208.905,14.6695 209.237,14.6702 209.569,14.6675 209.901,14.6615 210.232,14.6521 210.564,14.6395 210.895,14.6235 211.226,14.6043 211.557,14.5817 211.888,14.5558 212.219,14.5266 212.549,14.4941 212.879,14.4583 213.208,14.4192 213.537,14.3768 213.866,14.3312 214.194,14.2822 214.522,14.23 214.849,14.1744 215.175,14.1157 215.501,14.0536 215.826,13.9883 216.151,13.9198 216.475,13.848 216.798,13.773 217.121,13.6947 217.442,13.6132 217.763,13.5285 218.083,13.4407 218.402,13.3496 218.72,13.2553 219.037,13.1578 219.353,13.0572 219.668,12.9535 219.982,12.8465 220.295,12.7365 220.607,12.6233 220.918,12.507 221.228,12.3876 221.536,12.2652 221.843,12.1396 222.149,12.011 222.453,11.8793 222.757,11.7446 223.058,11.6069 223.359,11.4661 223.658,11.3224 223.955,11.1756 224.252,11.0259 224.546,10.8733 224.839,10.7177 225.131,10.5592 225.421,10.3978 225.709,10.2334 225.995,10.0663 226.28,9.89622 226.563,9.72334 226.845,9.54764 227.124,9.36913 227.402,9.18783 227.678,9.00377 227.953,8.81695 228.225,8.6274 228.495,8.43514 228.764,8.24018 229.03,8.04255 229.173,7.93476 229.211,7.98411 229.249,8.03309 229.288,8.08168 229.327,8.12988 229.367,8.17768 229.407,8.22509 229.448,8.27209 229.489,8.31868 229.531,8.36486 229.573,8.41062 229.615,8.45595 229.658,8.50086 229.702,8.54534 229.746,8.58938 229.79,8.63297 229.835,8.67613 229.88,8.71883 229.925,8.76108 229.972,8.80287 230.018,8.8442 230.065,8.88507 230.112,8.92546 230.16,8.96538 230.208,9.00482 230.256,9.04378 230.305,9.08225 230.354,9.12023 230.404,9.15771 230.454,9.1947 230.504,9.23119 230.555,9.26717 230.606,9.30265 230.657,9.33761 230.709,9.37205 230.761,9.40598 230.814,9.43938 230.866,9.47226 230.919,9.50461 230.973,9.53643 231.026,9.56771 231.081,9.59845 231.135,9.62865 231.189,9.6583 231.244,9.68741 231.3,9.71597 231.355,9.74397 231.411,9.77142 231.467,9.7983 231.523,9.82463 231.58,9.85039 231.637,9.87559 231.694,9.90021 231.751,9.92426 231.809,9.94774 231.866,9.97064 231.924,9.99296 231.983,10.0147 232.041,10.0359 232.1,10.0564 232.159,10.0764 232.218,10.0958 232.277,10.1146 232.336,10.1328 232.396,10.1504 232.456,10.1675 232.516,10.1839 232.576,10.1997 232.636,10.2149 232.697,10.2295 232.757,10.2435 232.818,10.2569 232.879,10.2697 232.94,10.2819 233.001,10.2935 233.062,10.3045 233.123,10.3148 233.185,10.3245 233.246,10.3337 233.308,10.3422 233.369,10.3501 233.431,10.3573 233.493,10.364 233.555,10.37 233.617,10.3755 233.679,10.3803 233.741,10.3844 233.803,10.388 233.865,10.3909 233.927,10.3932 233.989,10.3949 234.051,10.396 234.113,10.3965 234.176,10.3963 234.238,10.3955 234.3,10.3941 234.362,10.3921 234.424,10.3894 234.486,10.3861 234.548,10.3822 234.61,10.3777 234.672,10.3726 234.734,10.3668 234.796,10.3605 234.858,10.3535 234.919,10.3459 234.981,10.3376 235.043,10.3288 235.104,10.3193 235.165,10.3093 235.227,10.2986 235.288,10.2873 235.349,10.2754 235.41,10.2629 235.47,10.2497 235.531,10.236 235.592,10.2217 235.652,10.2067 235.712,10.1912 235.772,10.175 235.832,10.1583 235.892,10.141 235.951,10.123 236.01,10.1045 236.07,10.0854 236.129,10.0657 236.187,10.0454 236.246,10.0245 236.304,10.003 236.362,9.98093 236.42,9.9583 236.478,9.93508 236.535,9.91129 236.593,9.88693 236.649,9.86199 236.706,9.83649 236.732,9.82452 237.07,9.99057 237.409,10.1532 237.75,10.3125 238.092,10.4684 238.436,10.6208 238.781,10.7698 239.128,10.9153 239.477,11.0573 239.826,11.1959 240.177,11.3309 240.53,11.4624 240.883,11.5904 241.238,11.7149 241.595,11.8358 241.952,11.9531 242.311,12.0668 242.67,12.177 243.031,12.2836 243.393,12.3865 243.756,12.4858 244.119,12.5815 244.484,12.6735 244.85,12.7619 245.216,12.8467 245.584,12.9277 245.952,13.0051 246.321,13.0788 246.69,13.1488 247.06,13.2151 247.431,13.2777 247.803,13.3366 248.175,13.3918 248.547,13.4433 248.921,13.491 249.294,13.535 249.668,13.5752 249.961,13.604 250.453,13.6482 250.945,13.6873 251.438,13.7216 251.931,13.7509 252.425,13.7753 252.919,13.7948 253.412,13.8093 253.906,13.8189 254.4,13.8235 254.895,13.8232 255.389,13.818 255.883,13.8078 256.376,13.7927 256.87,13.7726 257.363,13.7476 257.857,13.7177 258.35,13.6829 258.842,13.6431 259.334,13.5984 259.826,13.5487 260.317,13.4942 260.807,13.4348 261.297,13.3704 261.786,13.3012 262.275,13.227 262.762,13.148 263.249,13.0641 263.735,12.9754 264.221,12.8818 264.705,12.7833 265.188,12.68 265.67,12.5719 266.151,12.459 266.631,12.3413 267.109,12.2187 267.587,12.0914 268.063,11.9594 268.538,11.8225 269.011,11.681 269.483,11.5347 269.953,11.3837 270.422,11.228 270.89,11.0676 271.355,10.9025 271.819,10.7328 272.282,10.5585 272.742,10.3795 273.201,10.196 273.658,10.0079 274.113,9.8152 274.566,9.61798 275.017,9.41624 275.466,9.21 275.913,8.99929 276.357,8.78411 276.8,8.5645 277.24,8.34047 277.678,8.11205 278.114,7.87926 278.548,7.64212 278.979,7.40066 279.407,7.1549 279.833,6.90487 280.257,6.65059 280.678,6.39209 281.097,6.12939 281.512,5.86252 281.926,5.5915 282.336,5.31636 282.744,5.03714 283.148,4.75385 283.55,4.46653 283.949,4.17521 283.976,4.15523 284.067,4.32553 284.159,4.49491 284.253,4.66337 284.348,4.83088 284.446,4.99742 284.545,5.16299 284.645,5.32755 284.747,5.49111 284.851,5.65363 284.956,5.81511 285.063,5.97553 285.172,6.13486 285.282,6.29311 285.394,6.45024 285.507,6.60625 285.622,6.76112 285.739,6.91482 285.857,7.06736 285.976,7.21871 286.097,7.36886 286.22,7.51779 286.344,7.66549 286.469,7.81194 286.596,7.95712 286.725,8.10104 286.854,8.24366 286.986,8.38497 287.118,8.52497 287.252,8.66363 287.388,8.80095 287.524,8.9369 287.662,9.07148 287.802,9.20468 287.943,9.33647 288.085,9.46685 288.228,9.5958 288.373,9.72331 288.519,9.84936 288.666,9.97395 288.814,10.0971 288.964,10.2187 289.115,10.3388 289.267,10.4574 289.42,10.5745 289.575,10.69 289.73,10.804 289.887,10.9165 290.045,11.0273 290.204,11.1366 290.363,11.2443 290.525,11.3503 290.687,11.4548 290.85,11.5576 291.014,11.6588 291.179,11.7584 291.345,11.8563 291.512,11.9525 291.68,12.0471 291.849,12.1399 292.019,12.2311 292.19,12.3206 292.362,12.4083 292.535,12.4943 292.708,12.5786 292.882,12.6612 293.057,12.742 293.233,12.8211 293.41,12.8984 293.587,12.9739 293.765,13.0477 293.944,13.1196 294.124,13.1898 294.304,13.2582 294.485,13.3247 294.667,13.3895 294.849,13.4524 295.032,13.5135 295.216,13.5728 295.315,13.604 296.041,13.5393 296.766,13.4674 297.491,13.3881 298.214,13.3017 298.937,13.208 299.659,13.1071 300.379,12.9989 301.099,12.8836 301.818,12.7611 302.535,12.6314 303.25,12.4945 303.965,12.3505 304.678,12.1994 305.389,12.0411 306.099,11.8757 306.807,11.7032 307.513,11.5237 308.218,11.3371 308.921,11.1435 309.621,10.9428 310.32,10.7352 311.016,10.5206 311.711,10.299 312.403,10.0705 313.092,9.83508 313.78,9.59278 314.465,9.34362 315.147,9.08763 315.827,8.82482 316.504,8.55523 317.178,8.27888 317.85,7.9958 317.992,7.93476 318.066,8.05772 318.14,8.17994 318.216,8.30141 318.293,8.42211 318.372,8.54203 318.451,8.66117 318.532,8.7795 318.614,8.89702 318.697,9.01372 318.781,9.12958 318.866,9.24459 318.953,9.35875 319.041,9.47203 319.129,9.58443 319.219,9.69594 319.31,9.80654 319.402,9.91622 319.496,10.025 319.59,10.1328 319.685,10.2397 319.782,10.3456 319.879,10.4505 319.978,10.5545 320.077,10.6575 320.178,10.7595 320.28,10.8604 320.382,10.9604 320.486,11.0593 320.59,11.1571 320.696,11.254 320.802,11.3497 320.91,11.4444 321.018,11.538 321.128,11.6305 321.238,11.7219 321.349,11.8123 321.461,11.9015 321.574,11.9895 321.688,12.0765 321.803,12.1623 321.918,12.2469 322.035,12.3304 322.152,12.4127 322.27,12.4939 322.389,12.5738 322.508,12.6526 322.629,12.7301 322.75,12.8065 322.872,12.8816 322.995,12.9556 323.118,13.0282 323.242,13.0997 323.367,13.1699 323.493,13.2388 323.619,13.3065 323.746,13.373 323.873,13.4381 324.001,13.502 324.13,13.5646 324.26,13.6259 324.39,13.6859 324.521,13.7446 324.652,13.802 324.784,13.858 324.916,13.9128 325.049,13.9662 325.182,14.0183 325.316,14.0691 325.451,14.1185 325.586,14.1666 325.721,14.2133 325.857,14.2586 325.993,14.3026 326.13,14.3453 326.267,14.3865 326.405,14.4264 326.543,14.4649 326.681,14.5021 326.756,14.5215 327.37,14.5131 327.984,14.4984 328.598,14.4777 329.212,14.4508 329.826,14.4178 330.439,14.3786 331.052,14.3333 331.664,14.2819 332.276,14.2243 332.887,14.1607 333.497,14.0909 334.107,14.015 334.716,13.9331 335.324,13.845 335.931,13.7509 336.537,13.6507 337.143,13.5445 337.747,13.4322 338.35,13.3139 338.951,13.1895 339.552,13.0592 340.151,12.9228 340.749,12.7805 341.345,12.6321 341.94,12.4779 342.533,12.3177 343.124,12.1515 343.714,11.9795 344.302,11.8016 344.888,11.6178 345.473,11.4281 346.055,11.2326 346.636,11.0313 347.214,10.8242 347.791,10.6114 348.365,10.3927 348.937,10.1684 349.507,9.93832 350.074,9.70257 350.639,9.46116 351.202,9.21411 351.762,8.96144 352.319,8.70319 352.874,8.43938 353.426,8.17003 353.898,7.93476 354.024,8.18158 354.152,8.42713 354.283,8.67139 354.417,8.91432 354.553,9.15591 354.691,9.39612 354.832,9.63494 354.975,9.87234 355.12,10.1083 355.268,10.3428 355.418,10.5758 355.571,10.8073 355.725,11.0372 355.882,11.2656 356.042,11.4924 356.203,11.7176 356.367,11.9412 356.533,12.1632 356.701,12.3834 356.872,12.602 357.044,12.8188 357.219,13.034 357.396,13.2473 357.575,13.4589 357.756,13.6687 357.94,13.8766 358.125,14.0827 358.312,14.287 358.502,14.4893 358.693,14.6898 358.887,14.8883 359.082,15.0849 359.279,15.2795 359.479,15.4722 359.68,15.6628 359.883,15.8514 360.088,16.038 360.295,16.2225 360.504,16.405 360.714,16.5853 360.926,16.7635 361.14,16.9396 361.356,17.1136 361.574,17.2854 361.793,17.455 362.014,17.6224 362.236,17.7875 362.461,17.9505 362.686,18.1112 362.914,18.2696 363.143,18.4258 363.373,18.5796 363.606,18.7312 363.839,18.8804 364.074,19.0272 364.311,19.1717 364.48,19.2733 364.48,57.0686 17.5197,57.0686 17.5197,19.2733 17.8141,19.2709 18.1084,19.2655 18.4027,19.2571 18.6969,19.2458 18.9909,19.2316 19.2848,19.2144 19.5785,19.1943 19.872,19.1712 20.1652,19.1452 20.4582,19.1163 20.7509,19.0845 21.0432,19.0497 21.3352,19.012 21.6267,18.9714 21.9179,18.9279 22.2086,18.8815 22.4988,18.8321 22.7885,18.7799 23.0777,18.7248 23.3663,18.6667 23.6544,18.6058 23.9418,18.5421 24.2285,18.4754 24.5146,18.4059 24.7999,18.3335 25.0846,18.2583 25.3684,18.1802 25.6515,18.0993 25.9337,18.0156 26.2151,17.9291 26.4956,17.8397 26.7752,17.7476 27.0538,17.6526 27.3315,17.5549 27.6082,17.4544 27.8839,17.3511 28.1586,17.2451 28.4321,17.1364 28.7046,17.0249 28.9759,16.9107 29.2461,16.7938 29.5151,16.6742 29.7829,16.5519 30.0495,16.4269 30.3148,16.2993 30.5788,16.169 30.8414,16.0361 31.1028,15.9006 31.3628,15.7625 31.6213,15.6217 31.8785,15.4784 32.1342,15.3326 32.3885,15.1842 32.6412,15.0332 32.8924,14.8798 33.1421,14.7238 33.3902,14.5653 33.6367,14.4044 33.8816,14.241 34.1248,14.0752 34.3664,13.9069 34.6063,13.7362 34.8444,13.5632 35.0809,13.3878 35.3155,13.21 35.5484,13.0299 35.7794,12.8474 36.0086,12.6627 36.236,12.4757 36.4614,12.2864 36.685,12.0948 36.9066,11.9011 37.1263,11.7051 37.3441,11.507 37.5598,11.3066 37.7735,11.1042 37.9852,10.8996 38.1948,10.6929 38.3071,10.5804 38.8597,10.8693 39.4623,11.1917 40.0616,11.5202 40.6577,11.8546 41.2504,12.1949 41.8396,12.5412 42.4254,12.8934 43.0076,13.2513 43.5862,13.6151 44.1611,13.9847 44.7323,14.36 45.0063,14.3812 45.2806,14.3997 45.555,14.4154 45.8295,14.4284 46.1042,14.4387 46.3789,14.4462 46.6537,14.4509 46.9286,14.4529 47.2035,14.4522 47.4783,14.4487 47.7531,14.4425 48.0278,14.4335 48.3024,14.4218 48.5769,14.4073 48.8512,14.3901 49.1253,14.3701 49.3992,14.3474 49.6729,14.322 49.9463,14.2938 50.2194,14.2629 50.4922,14.2292 50.7647,14.1929 51.0367,14.1538 51.3084,14.112 51.5796,14.0675 51.8504,14.0202 52.1207,13.9703 52.3904,13.9177 52.6597,13.8623 52.9283,13.8043 53.1964,13.7436 53.4638,13.6802 53.7307,13.6142 53.9968,13.5455 54.2622,13.4741 54.5269,13.4001 54.7909,13.3234 55.054,13.2441 55.3164,13.1622 55.5779,13.0776 55.8386,12.9905 56.0984,12.9007 56.3572,12.8083 56.6152,12.7134 56.8722,12.6159 57.1282,12.5158 57.3831,12.4132 57.6371,12.308 57.8899,12.2003 58.1417,12.09 58.3924,11.9773 58.6419,11.862 58.8903,11.7443 59.1374,11.6241 59.3834,11.5014 59.6281,11.3763 59.8716,11.2487 60.1137,11.1187 60.3546,10.9862 60.5941,10.8514 60.8323,10.7142 61.069,10.5746 61.3044,10.4327 61.5383,10.2884 61.7708,10.1418 62.0018,9.99281 62.2313,9.84157 62.4593,9.68803 62.6857,9.53223 62.9106,9.37417 63.1339,9.21387 63.3555,9.05134 63.5755,8.8866 63.7939,8.71968 64.0106,8.55057 64.2256,8.37931 64.4388,8.20591 64.6503,8.03038 64.7638,7.93476 65.7243,8.63528 66.6917,9.32617 67.6661,10.0073 68.6472,10.6787 69.6349,11.3403 70.6292,11.9919 71.63,12.6336 72.6371,13.2652 73.6506,13.8868 74.6701,14.4981 75.6958,15.0993 75.7244,15.1159 76.121,15.1765 76.5183,15.2331 76.916,15.2858 77.3143,15.3345 77.713,15.3792 78.1122,15.42 78.5118,15.4567 78.9117,15.4894 79.3119,15.5182 79.7124,15.5429 80.1131,15.5636 80.5139,15.5803 80.915,15.593 81.3161,15.6017 81.7173,15.6064 82.1186,15.6071 82.5198,15.6038 82.921,15.5964 83.3221,15.585 83.723,15.5697 84.1238,15.5503 84.5243,15.5269 84.9246,15.4995 85.3246,15.4681 85.7243,15.4327 86.1236,15.3933 86.5225,15.3499 86.9209,15.3026 87.3189,15.2512 87.7163,15.1959 88.1131,15.1366 88.5093,15.0734 88.9049,15.0061 89.2998,14.935 89.6939,14.8598 90.0873,14.7808 90.4799,14.6978 90.8716,14.6109 91.2624,14.5201 91.6523,14.4254 92.0412,14.3267 92.4292,14.2242 92.8161,14.1179 93.2019,14.0076 93.5865,13.8935 93.97,13.7756 94.3524,13.6538 94.7335,13.5283 95.1133,13.3989 95.4918,13.2657 95.8689,13.1288 96.2446,12.988 96.619,12.8436 96.9918,12.6954 97.3632,12.5434 97.733,12.3878 98.1013,12.2285 98.4679,12.0655 98.8329,11.8988 99.1962,11.7285 99.5578,11.5546 99.9176,11.3771 100.276,11.196 100.632,11.0113 100.986,10.8231 101.339,10.6313 101.689,10.436 102.038,10.2372 102.384,10.0349 102.729,9.82923 103.071,9.62008 103.411,9.40752 103.75,9.19156 104.086,8.97223 104.419,8.74956 104.751,8.52356 105.08,8.29425 105.407,8.06167 105.583,7.93476 105.813,8.15126 106.045,8.36545 106.279,8.57731 106.515,8.78682 106.753,8.99396 106.994,9.1987 107.236,9.40103 107.481,9.60092 107.727,9.79836 107.976,9.99333 108.226,10.1858 108.478,10.3758 108.733,10.5632 108.989,10.7481 109.246,10.9304 109.506,11.1101 109.768,11.2872 110.031,11.4617 110.296,11.6335 110.562,11.8027 110.831,11.9692 111.101,12.133 111.372,12.2942 111.646,12.4525 111.92,12.6082 112.197,12.7611 112.474,12.9112 112.754,13.0585 113.035,13.2031 113.317,13.3448 113.6,13.4837 113.885,13.6198 114.172,13.7529 114.459,13.8833 114.748,14.0107 115.038,14.1353 115.33,14.2569 115.623,14.3756 115.916,14.4914 116.211,14.6042 116.507,14.7141 116.805,14.821 117.103,14.925 117.402,15.0259 117.677,15.1159 118.855,15.0491 120.033,14.9706 121.21,14.8803 122.386,14.7782 123.56,14.6644 "
   id="polygon2"
   style="fill:#000000;fill-opacity:1" />
</g>
</svg>